<svg aria-hidden="true" style="position: absolute; width: 0; height: 0; overflow: hidden;" version="1.1" xmlns="http://www.w3.org/2000/svg" xmlns:xlink="http://www.w3.org/1999/xlink">
<defs>
<symbol id="icon-svg2">
<path d="M99 50C99 22.938 77.062 1 50 1C22.938 1 1 22.938 1 50C1 77.062 22.938 99 50 99C77.062 99 99 77.062 99 50Z" fill="blue" stroke="#EAEDF3" stroke-width="2"/>
<path fill-rule="evenodd" clip-rule="evenodd" d="M63.143 60.5C63.264 60.526 63.392 60.552 63.527 60.578C64.898 60.835 66.833 61 69 61C71.167 61 73.102 60.835 74.473 60.578C74.608 60.552 74.736 60.526 74.857 60.5C74.736 60.474 74.608 60.448 74.473 60.422C73.102 60.165 71.167 60 69 60C66.833 60 64.898 60.165 63.527 60.422C63.392 60.448 63.264 60.474 63.143 60.5ZM63.159 58.457C64.684 58.171 66.748 58 69 58C71.252 58 73.316 58.171 74.841 58.457C75.595 58.598 76.268 58.777 76.777 59.002C77.027 59.113 77.294 59.26 77.513 59.46C77.73 59.66 78 60.008 78 60.5V65.5V70.5V75.5C78 75.992 77.73 76.341 77.513 76.54C77.294 76.74 77.027 76.887 76.777 76.998C76.268 77.223 75.595 77.402 74.841 77.544C73.316 77.83 71.252 78 69 78C66.748 78 64.684 77.83 63.159 77.544C62.405 77.402 61.732 77.223 61.223 76.998C61.15 76.965 61.075 76.93 61 76.891C60.925 76.93 60.85 76.965 60.777 76.998C60.268 77.223 59.595 77.402 58.841 77.544C57.316 77.83 55.252 78 53 78C50.748 78 48.684 77.83 47.159 77.544C46.405 77.402 45.732 77.223 45.223 76.998C44.973 76.887 44.706 76.74 44.487 76.54C44.27 76.341 44 75.992 44 75.5V70.5C44 70.008 44.27 69.66 44.487 69.46C44.706 69.26 44.973 69.113 45.223 69.002C45.732 68.777 46.405 68.598 47.159 68.457C48.684 68.171 50.748 68 53 68C55.252 68 57.316 68.171 58.841 68.457C59.257 68.534 59.648 68.624 60 68.726V65.5V60.5C60 60.008 60.27 59.66 60.487 59.46C60.706 59.26 60.973 59.113 61.223 59.002C61.732 58.777 62.405 58.598 63.159 58.457ZM62 72.274V75.154C62.011 75.159 62.022 75.164 62.034 75.17C62.335 75.303 62.834 75.448 63.527 75.578C64.898 75.835 66.833 76 69 76C71.167 76 73.102 75.835 74.473 75.578C75.166 75.448 75.665 75.303 75.966 75.17C75.978 75.164 75.989 75.159 76 75.154V72.274C75.648 72.376 75.257 72.466 74.841 72.544C73.316 72.83 71.252 73 69 73C66.748 73 64.684 72.83 63.159 72.544C62.743 72.466 62.352 72.376 62 72.274ZM60 72.274C59.648 72.376 59.257 72.466 58.841 72.544C57.316 72.83 55.252 73 53 73C50.748 73 48.684 72.83 47.159 72.544C46.743 72.466 46.352 72.376 46 72.274V75.154C46.011 75.159 46.022 75.164 46.034 75.17C46.335 75.303 46.834 75.448 47.527 75.578C48.898 75.835 50.833 76 53 76C55.167 76 57.102 75.835 58.473 75.578C59.166 75.448 59.665 75.303 59.966 75.17C59.978 75.164 59.989 75.159 60 75.154V72.274ZM74.841 62.544C75.257 62.466 75.648 62.376 76 62.274V65.154C75.989 65.159 75.978 65.164 75.966 65.17C75.665 65.303 75.166 65.448 74.473 65.578C73.102 65.835 71.167 66 69 66C66.833 66 64.898 65.835 63.527 65.578C62.834 65.448 62.335 65.303 62.034 65.17C62.022 65.164 62.011 65.159 62 65.154V62.274C62.352 62.376 62.743 62.466 63.159 62.544C64.684 62.83 66.748 63 69 63C71.252 63 73.316 62.83 74.841 62.544ZM74.841 67.544C75.257 67.466 75.648 67.376 76 67.274V70.154C75.991 70.159 75.981 70.163 75.972 70.167L75.966 70.17C75.665 70.303 75.166 70.448 74.473 70.578C73.102 70.835 71.167 71 69 71C66.833 71 64.898 70.835 63.527 70.578C62.834 70.448 62.335 70.303 62.034 70.17C62.022 70.164 62.011 70.159 62 70.154V67.274C62.352 67.376 62.743 67.466 63.159 67.544C64.684 67.83 66.748 68 69 68C71.252 68 73.316 67.83 74.841 67.544ZM47.143 70.5C47.264 70.526 47.392 70.552 47.527 70.578C48.898 70.835 50.833 71 53 71C55.167 71 57.102 70.835 58.473 70.578C58.608 70.552 58.736 70.526 58.857 70.5C58.736 70.474 58.608 70.448 58.473 70.422C57.102 70.165 55.167 70 53 70C50.833 70 48.898 70.165 47.527 70.422C47.392 70.448 47.264 70.474 47.143 70.5Z" fill="white"/>
<path fill-rule="evenodd" clip-rule="evenodd" d="M32 24.412L34.25 26L38.5 23L42.75 26L47 23L51.25 26L55.5 23L59.75 26L62 24.412L64 23V25.448V46H68H70V48V54.01C69.669 54.004 69.336 54 69 54C68.664 54 68.331 54.004 68 54.01V48H64V53V54.283C63.444 54.352 62.915 54.433 62.422 54.525C61.826 54.637 61.162 54.787 60.509 55H32H30V53V48H26V76H40.023C40.095 76.786 40.333 77.453 40.626 78H26H24V76V48V46H26H30V25.448V23L32 24.412ZM56.214 59C56.082 59.448 56 59.948 56 60.5V61H52V59H56.214ZM62 26.86V46V48V51V53H60H34H32V51V48V46V26.86L33.097 27.634L34.25 28.448L35.403 27.634L38.5 25.448L41.597 27.634L42.75 28.448L43.903 27.634L47 25.448L50.097 27.634L51.25 28.448L52.403 27.634L55.5 25.448L58.597 27.634L59.75 28.448L60.903 27.634L62 26.86ZM48 61H34V59H48V61Z" fill="white"/>
</symbol>
<symbol id="icon-svg">
<path d="M99 50C99 22.938 77.062 1 50 1C22.938 1 1 22.938 1 50C1 77.062 22.938 99 50 99C77.062 99 99 77.062 99 50Z" fill="white" stroke="#EAEDF3" stroke-width="2"/>
<path fill-rule="evenodd" clip-rule="evenodd" d="M63.143 60.5C63.264 60.526 63.392 60.552 63.527 60.578C64.898 60.835 66.833 61 69 61C71.167 61 73.102 60.835 74.473 60.578C74.608 60.552 74.736 60.526 74.857 60.5C74.736 60.474 74.608 60.448 74.473 60.422C73.102 60.165 71.167 60 69 60C66.833 60 64.898 60.165 63.527 60.422C63.392 60.448 63.264 60.474 63.143 60.5ZM63.159 58.457C64.684 58.171 66.748 58 69 58C71.252 58 73.316 58.171 74.841 58.457C75.595 58.598 76.268 58.777 76.777 59.002C77.027 59.113 77.294 59.26 77.513 59.46C77.73 59.66 78 60.008 78 60.5V65.5V70.5V75.5C78 75.992 77.73 76.341 77.513 76.54C77.294 76.74 77.027 76.887 76.777 76.998C76.268 77.223 75.595 77.402 74.841 77.544C73.316 77.83 71.252 78 69 78C66.748 78 64.684 77.83 63.159 77.544C62.405 77.402 61.732 77.223 61.223 76.998C61.15 76.965 61.075 76.93 61 76.891C60.925 76.93 60.85 76.965 60.777 76.998C60.268 77.223 59.595 77.402 58.841 77.544C57.316 77.83 55.252 78 53 78C50.748 78 48.684 77.83 47.159 77.544C46.405 77.402 45.732 77.223 45.223 76.998C44.973 76.887 44.706 76.74 44.487 76.54C44.27 76.341 44 75.992 44 75.5V70.5C44 70.008 44.27 69.66 44.487 69.46C44.706 69.26 44.973 69.113 45.223 69.002C45.732 68.777 46.405 68.598 47.159 68.457C48.684 68.171 50.748 68 53 68C55.252 68 57.316 68.171 58.841 68.457C59.257 68.534 59.648 68.624 60 68.726V65.5V60.5C60 60.008 60.27 59.66 60.487 59.46C60.706 59.26 60.973 59.113 61.223 59.002C61.732 58.777 62.405 58.598 63.159 58.457ZM62 72.274V75.154C62.011 75.159 62.022 75.164 62.034 75.17C62.335 75.303 62.834 75.448 63.527 75.578C64.898 75.835 66.833 76 69 76C71.167 76 73.102 75.835 74.473 75.578C75.166 75.448 75.665 75.303 75.966 75.17C75.978 75.164 75.989 75.159 76 75.154V72.274C75.648 72.376 75.257 72.466 74.841 72.544C73.316 72.83 71.252 73 69 73C66.748 73 64.684 72.83 63.159 72.544C62.743 72.466 62.352 72.376 62 72.274ZM60 72.274C59.648 72.376 59.257 72.466 58.841 72.544C57.316 72.83 55.252 73 53 73C50.748 73 48.684 72.83 47.159 72.544C46.743 72.466 46.352 72.376 46 72.274V75.154C46.011 75.159 46.022 75.164 46.034 75.17C46.335 75.303 46.834 75.448 47.527 75.578C48.898 75.835 50.833 76 53 76C55.167 76 57.102 75.835 58.473 75.578C59.166 75.448 59.665 75.303 59.966 75.17C59.978 75.164 59.989 75.159 60 75.154V72.274ZM74.841 62.544C75.257 62.466 75.648 62.376 76 62.274V65.154C75.989 65.159 75.978 65.164 75.966 65.17C75.665 65.303 75.166 65.448 74.473 65.578C73.102 65.835 71.167 66 69 66C66.833 66 64.898 65.835 63.527 65.578C62.834 65.448 62.335 65.303 62.034 65.17C62.022 65.164 62.011 65.159 62 65.154V62.274C62.352 62.376 62.743 62.466 63.159 62.544C64.684 62.83 66.748 63 69 63C71.252 63 73.316 62.83 74.841 62.544ZM74.841 67.544C75.257 67.466 75.648 67.376 76 67.274V70.154C75.991 70.159 75.981 70.163 75.972 70.167L75.966 70.17C75.665 70.303 75.166 70.448 74.473 70.578C73.102 70.835 71.167 71 69 71C66.833 71 64.898 70.835 63.527 70.578C62.834 70.448 62.335 70.303 62.034 70.17C62.022 70.164 62.011 70.159 62 70.154V67.274C62.352 67.376 62.743 67.466 63.159 67.544C64.684 67.83 66.748 68 69 68C71.252 68 73.316 67.83 74.841 67.544ZM47.143 70.5C47.264 70.526 47.392 70.552 47.527 70.578C48.898 70.835 50.833 71 53 71C55.167 71 57.102 70.835 58.473 70.578C58.608 70.552 58.736 70.526 58.857 70.5C58.736 70.474 58.608 70.448 58.473 70.422C57.102 70.165 55.167 70 53 70C50.833 70 48.898 70.165 47.527 70.422C47.392 70.448 47.264 70.474 47.143 70.5Z" fill="#8894AA"/>
<path fill-rule="evenodd" clip-rule="evenodd" d="M32 24.412L34.25 26L38.5 23L42.75 26L47 23L51.25 26L55.5 23L59.75 26L62 24.412L64 23V25.448V46H68H70V48V54.01C69.669 54.004 69.336 54 69 54C68.664 54 68.331 54.004 68 54.01V48H64V53V54.283C63.444 54.352 62.915 54.433 62.422 54.525C61.826 54.637 61.162 54.787 60.509 55H32H30V53V48H26V76H40.023C40.095 76.786 40.333 77.453 40.626 78H26H24V76V48V46H26H30V25.448V23L32 24.412ZM56.214 59C56.082 59.448 56 59.948 56 60.5V61H52V59H56.214ZM62 26.86V46V48V51V53H60H34H32V51V48V46V26.86L33.097 27.634L34.25 28.448L35.403 27.634L38.5 25.448L41.597 27.634L42.75 28.448L43.903 27.634L47 25.448L50.097 27.634L51.25 28.448L52.403 27.634L55.5 25.448L58.597 27.634L59.75 28.448L60.903 27.634L62 26.86ZM48 61H34V59H48V61Z" fill="#8894AA"/>
</symbol>
<symbol id="icon-svg3">
<path d="M99 50C99 22.938 77.062 1 50 1C22.938 1 1 22.938 1 50C1 77.062 22.938 99 50 99C77.062 99 99 77.062 99 50Z" fill="white" stroke="#EAEDF3" stroke-width="2"/>
<path d="M96.931 67.248C99.711 59.684 100.621 51.561 99.585 43.569C98.548 35.578 95.596 27.955 90.978 21.351C86.361 14.746 80.216 9.35601 73.066 5.63801C65.916 1.92101 57.974 -0.0139856 49.915 1.43959e-05L49.919 1.99C57.657 1.977 65.283 3.83403 72.148 7.40303C79.013 10.973 84.914 16.149 89.348 22.491C93.781 28.832 96.616 36.151 97.612 43.825C98.607 51.498 97.733 59.299 95.063 66.562L96.931 67.248Z" fill="#1050CC"/>
<path fill-rule="evenodd" clip-rule="evenodd" d="M63.143 60.5C63.264 60.526 63.392 60.552 63.527 60.578C64.898 60.835 66.833 61 69 61C71.167 61 73.102 60.835 74.473 60.578C74.608 60.552 74.736 60.526 74.857 60.5C74.736 60.474 74.608 60.448 74.473 60.422C73.102 60.165 71.167 60 69 60C66.833 60 64.898 60.165 63.527 60.422C63.392 60.448 63.264 60.474 63.143 60.5ZM63.159 58.457C64.684 58.171 66.748 58 69 58C71.252 58 73.316 58.171 74.841 58.457C75.595 58.598 76.268 58.777 76.777 59.002C77.027 59.113 77.294 59.26 77.513 59.46C77.73 59.66 78 60.008 78 60.5V65.5V70.5V75.5C78 75.992 77.73 76.341 77.513 76.54C77.294 76.74 77.027 76.887 76.777 76.998C76.268 77.223 75.595 77.402 74.841 77.544C73.316 77.83 71.252 78 69 78C66.748 78 64.684 77.83 63.159 77.544C62.405 77.402 61.732 77.223 61.223 76.998C61.15 76.965 61.075 76.93 61 76.891C60.925 76.93 60.85 76.965 60.777 76.998C60.268 77.223 59.595 77.402 58.841 77.544C57.316 77.83 55.252 78 53 78C50.748 78 48.684 77.83 47.159 77.544C46.405 77.402 45.732 77.223 45.223 76.998C44.973 76.887 44.706 76.74 44.487 76.54C44.27 76.341 44 75.992 44 75.5V70.5C44 70.008 44.27 69.66 44.487 69.46C44.706 69.26 44.973 69.113 45.223 69.002C45.732 68.777 46.405 68.598 47.159 68.457C48.684 68.171 50.748 68 53 68C55.252 68 57.316 68.171 58.841 68.457C59.257 68.534 59.648 68.624 60 68.726V65.5V60.5C60 60.008 60.27 59.66 60.487 59.46C60.706 59.26 60.973 59.113 61.223 59.002C61.732 58.777 62.405 58.598 63.159 58.457ZM62 72.274V75.154C62.011 75.159 62.022 75.164 62.034 75.17C62.335 75.303 62.834 75.448 63.527 75.578C64.898 75.835 66.833 76 69 76C71.167 76 73.102 75.835 74.473 75.578C75.166 75.448 75.665 75.303 75.966 75.17C75.978 75.164 75.989 75.159 76 75.154V72.274C75.648 72.376 75.257 72.466 74.841 72.544C73.316 72.83 71.252 73 69 73C66.748 73 64.684 72.83 63.159 72.544C62.743 72.466 62.352 72.376 62 72.274ZM60 72.274C59.648 72.376 59.257 72.466 58.841 72.544C57.316 72.83 55.252 73 53 73C50.748 73 48.684 72.83 47.159 72.544C46.743 72.466 46.352 72.376 46 72.274V75.154C46.011 75.159 46.022 75.164 46.034 75.17C46.335 75.303 46.834 75.448 47.527 75.578C48.898 75.835 50.833 76 53 76C55.167 76 57.102 75.835 58.473 75.578C59.166 75.448 59.665 75.303 59.966 75.17C59.978 75.164 59.989 75.159 60 75.154V72.274ZM74.841 62.544C75.257 62.466 75.648 62.376 76 62.274V65.154C75.989 65.159 75.978 65.164 75.966 65.17C75.665 65.303 75.166 65.448 74.473 65.578C73.102 65.835 71.167 66 69 66C66.833 66 64.898 65.835 63.527 65.578C62.834 65.448 62.335 65.303 62.034 65.17C62.022 65.164 62.011 65.159 62 65.154V62.274C62.352 62.376 62.743 62.466 63.159 62.544C64.684 62.83 66.748 63 69 63C71.252 63 73.316 62.83 74.841 62.544ZM74.841 67.544C75.257 67.466 75.648 67.376 76 67.274V70.154C75.991 70.159 75.981 70.163 75.972 70.167L75.966 70.17C75.665 70.303 75.166 70.448 74.473 70.578C73.102 70.835 71.167 71 69 71C66.833 71 64.898 70.835 63.527 70.578C62.834 70.448 62.335 70.303 62.034 70.17C62.022 70.164 62.011 70.159 62 70.154V67.274C62.352 67.376 62.743 67.466 63.159 67.544C64.684 67.83 66.748 68 69 68C71.252 68 73.316 67.83 74.841 67.544ZM47.143 70.5C47.264 70.526 47.392 70.552 47.527 70.578C48.898 70.835 50.833 71 53 71C55.167 71 57.102 70.835 58.473 70.578C58.608 70.552 58.736 70.526 58.857 70.5C58.736 70.474 58.608 70.448 58.473 70.422C57.102 70.165 55.167 70 53 70C50.833 70 48.898 70.165 47.527 70.422C47.392 70.448 47.264 70.474 47.143 70.5Z" fill="#8894AA"/>
<path fill-rule="evenodd" clip-rule="evenodd" d="M32 24.412L34.25 26L38.5 23L42.75 26L47 23L51.25 26L55.5 23L59.75 26L62 24.412L64 23V25.448V46H68H70V48V54.01C69.669 54.004 69.336 54 69 54C68.664 54 68.331 54.004 68 54.01V48H64V53V54.283C63.444 54.352 62.915 54.433 62.422 54.525C61.826 54.637 61.162 54.787 60.509 55H32H30V53V48H26V76H40.023C40.095 76.786 40.333 77.453 40.626 78H26H24V76V48V46H26H30V25.448V23L32 24.412ZM56.214 59C56.082 59.448 56 59.948 56 60.5V61H52V59H56.214ZM62 26.86V46V48V51V53H60H34H32V51V48V46V26.86L33.097 27.634L34.25 28.448L35.403 27.634L38.5 25.448L41.597 27.634L42.75 28.448L43.903 27.634L47 25.448L50.097 27.634L51.25 28.448L52.403 27.634L55.5 25.448L58.597 27.634L59.75 28.448L60.903 27.634L62 26.86ZM48 61H34V59H48V61Z" fill="#8894AA"/>
</symbol>
<symbol id="zak">
<path d="M99 50C99 22.938 77.062 1 50 1C22.938 1 1 22.938 1 50C1 77.062 22.938 99 50 99C77.062 99 99 77.062 99 50Z" fill="white" stroke="#EAEDF3" stroke-width="2"/>
<path d="M99 50C99 22.938 77.062 1 50 1C22.938 1 1 22.938 1 50C1 77.062 22.938 99 50 99C77.062 99 99 77.062 99 50Z" fill="white" stroke="#EAEDF3" stroke-width="2"/>
<path fill-rule="evenodd" clip-rule="evenodd" d="M26 22.586L27.707 24.293L28.5 25.086L30.293 23.293L31 22.586L31.707 23.293L33.5 25.086L35.293 23.293L36 22.586L36.707 23.293L38.5 25.086L40.293 23.293L41 22.586L41.707 23.293L43.5 25.086L45.293 23.293L46 22.586L46.707 23.293L48.5 25.086L50.293 23.293L51 22.586L51.707 23.293L53.5 25.086L55.293 23.293L56 22.586L56.707 23.293L58.5 25.086L59.293 24.293L61 22.586V25V47.51C60.386 47.01 59.716 46.57 59 46.2V27.41L58.5 27.91L57.793 27.21L56 25.414L54.207 27.21L53.5 27.91L52.793 27.21L51 25.414L49.207 27.21L48.5 27.91L47.793 27.21L46 25.414L44.207 27.21L43.5 27.91L42.793 27.21L41 25.414L39.207 27.21L38.5 27.91L37.793 27.21L36 25.414L34.207 27.21L33.5 27.91L32.793 27.21L31 25.414L29.207 27.21L28.5 27.91L28 27.41V68.59L28.5 68.09L29.207 68.79L31 70.59L32.793 68.79L33.5 68.09L34.207 68.79L36 70.59L37.793 68.79L38.5 68.09L39.207 68.79L41 70.59L42.793 68.79L43.5 68.09L44.207 68.79L46 70.59L47.793 68.79L48.5 68.09L49.207 68.79L50.749 70.33L49.537 71.95L48.5 70.91L46.707 72.71L46 73.41L45.293 72.71L43.5 70.91L41.707 72.71L41 73.41L40.293 72.71L38.5 70.91L36.707 72.71L36 73.41L35.293 72.71L33.5 70.91L31.707 72.71L31 73.41L30.293 72.71L28.5 70.91L27.707 71.71L26 73.41V71V25V22.586ZM45.514 63C46.141 63.76 46.868 64.43 47.674 65H39V63H45.514ZM43.181 58C43.308 58.69 43.5 59.36 43.75 60H39V58H43.181ZM45.514 49C45.007 49.61 44.565 50.28 44.199 51H39V49H45.514ZM54 45V44H39V46H49.411C50.808 45.36 52.362 45 54 45ZM33 32H45V34H33V32ZM33 39H37V41H33V39ZM37 44H33V46H37V44ZM33 49H37V51H33V49ZM37 58H33V60H37V58ZM33 63H37V65H33V63ZM54 39H39V41H54V39Z" fill="#8894AA"/>
<path fill-rule="evenodd" clip-rule="evenodd" d="M52.8 77.6L73.8 49.6L72.2 48.4L51.2 76.4L52.8 77.6ZM54 61C56.761 61 59 58.76 59 56C59 53.24 56.761 51 54 51C51.239 51 49 53.24 49 56C49 58.76 51.239 61 54 61ZM54 63C57.866 63 61 59.87 61 56C61 52.13 57.866 49 54 49C50.134 49 47 52.13 47 56C47 59.87 50.134 63 54 63ZM71 75C73.761 75 76 72.76 76 70C76 67.24 73.761 65 71 65C68.239 65 66 67.24 66 70C66 72.76 68.239 75 71 75ZM71 77C74.866 77 78 73.87 78 70C78 66.13 74.866 63 71 63C67.134 63 64 66.13 64 70C64 73.87 67.134 77 71 77Z" fill="#8894AA"/>
</symbol>
<symbol id="zak-next">
<path d="M99 50C99 22.938 77.062 1 50 1C22.938 1 1 22.938 1 50C1 77.062 22.938 99 50 99C77.062 99 99 77.062 99 50Z" fill="white" stroke="#EAEDF3" stroke-width="2"/>
<path d="M99 50C99 22.938 77.062 1 50 1C22.938 1 1 22.938 1 50C1 77.062 22.938 99 50 99C77.062 99 99 77.062 99 50Z" fill="white" stroke="#EAEDF3" stroke-width="2"/>
<path d="M96.931 67.248C99.711 59.684 100.621 51.561 99.585 43.569C98.548 35.578 95.596 27.955 90.978 21.351C86.361 14.746 80.216 9.35601 73.066 5.63801C65.916 1.92101 57.974 -0.0139856 49.915 1.43959e-05L49.919 1.99C57.657 1.977 65.283 3.83403 72.148 7.40303C79.013 10.973 84.914 16.149 89.348 22.491C93.781 28.832 96.616 36.151 97.612 43.825C98.607 51.498 97.733 59.299 95.063 66.562L96.931 67.248Z" fill="#1050CC"/>
<path fill-rule="evenodd" clip-rule="evenodd" d="M26 22.586L27.707 24.293L28.5 25.086L30.293 23.293L31 22.586L31.707 23.293L33.5 25.086L35.293 23.293L36 22.586L36.707 23.293L38.5 25.086L40.293 23.293L41 22.586L41.707 23.293L43.5 25.086L45.293 23.293L46 22.586L46.707 23.293L48.5 25.086L50.293 23.293L51 22.586L51.707 23.293L53.5 25.086L55.293 23.293L56 22.586L56.707 23.293L58.5 25.086L59.293 24.293L61 22.586V25V47.51C60.386 47.01 59.716 46.57 59 46.2V27.41L58.5 27.91L57.793 27.21L56 25.414L54.207 27.21L53.5 27.91L52.793 27.21L51 25.414L49.207 27.21L48.5 27.91L47.793 27.21L46 25.414L44.207 27.21L43.5 27.91L42.793 27.21L41 25.414L39.207 27.21L38.5 27.91L37.793 27.21L36 25.414L34.207 27.21L33.5 27.91L32.793 27.21L31 25.414L29.207 27.21L28.5 27.91L28 27.41V68.59L28.5 68.09L29.207 68.79L31 70.59L32.793 68.79L33.5 68.09L34.207 68.79L36 70.59L37.793 68.79L38.5 68.09L39.207 68.79L41 70.59L42.793 68.79L43.5 68.09L44.207 68.79L46 70.59L47.793 68.79L48.5 68.09L49.207 68.79L50.749 70.33L49.537 71.95L48.5 70.91L46.707 72.71L46 73.41L45.293 72.71L43.5 70.91L41.707 72.71L41 73.41L40.293 72.71L38.5 70.91L36.707 72.71L36 73.41L35.293 72.71L33.5 70.91L31.707 72.71L31 73.41L30.293 72.71L28.5 70.91L27.707 71.71L26 73.41V71V25V22.586ZM45.514 63C46.141 63.76 46.868 64.43 47.674 65H39V63H45.514ZM43.181 58C43.308 58.69 43.5 59.36 43.75 60H39V58H43.181ZM45.514 49C45.007 49.61 44.565 50.28 44.199 51H39V49H45.514ZM54 45V44H39V46H49.411C50.808 45.36 52.362 45 54 45ZM33 32H45V34H33V32ZM33 39H37V41H33V39ZM37 44H33V46H37V44ZM33 49H37V51H33V49ZM37 58H33V60H37V58ZM33 63H37V65H33V63ZM54 39H39V41H54V39Z" fill="#8894AA"/>
<path fill-rule="evenodd" clip-rule="evenodd" d="M52.8 77.6L73.8 49.6L72.2 48.4L51.2 76.4L52.8 77.6ZM54 61C56.761 61 59 58.76 59 56C59 53.24 56.761 51 54 51C51.239 51 49 53.24 49 56C49 58.76 51.239 61 54 61ZM54 63C57.866 63 61 59.87 61 56C61 52.13 57.866 49 54 49C50.134 49 47 52.13 47 56C47 59.87 50.134 63 54 63ZM71 75C73.761 75 76 72.76 76 70C76 67.24 73.761 65 71 65C68.239 65 66 67.24 66 70C66 72.76 68.239 75 71 75ZM71 77C74.866 77 78 73.87 78 70C78 66.13 74.866 63 71 63C67.134 63 64 66.13 64 70C64 73.87 67.134 77 71 77Z" fill="#8894AA"/>
</symbol>
<symbol id="zak-active">
<path d="M99 50C99 22.938 77.062 1 50 1C22.938 1 1 22.938 1 50C1 77.062 22.938 99 50 99C77.062 99 99 77.062 99 50Z" fill="blue" stroke="#EAEDF3" stroke-width="2"/>
<path fill-rule="evenodd" clip-rule="evenodd" d="M26 22.586L27.707 24.293L28.5 25.086L30.293 23.293L31 22.586L31.707 23.293L33.5 25.086L35.293 23.293L36 22.586L36.707 23.293L38.5 25.086L40.293 23.293L41 22.586L41.707 23.293L43.5 25.086L45.293 23.293L46 22.586L46.707 23.293L48.5 25.086L50.293 23.293L51 22.586L51.707 23.293L53.5 25.086L55.293 23.293L56 22.586L56.707 23.293L58.5 25.086L59.293 24.293L61 22.586V25V47.51C60.386 47.01 59.716 46.57 59 46.2V27.41L58.5 27.91L57.793 27.21L56 25.414L54.207 27.21L53.5 27.91L52.793 27.21L51 25.414L49.207 27.21L48.5 27.91L47.793 27.21L46 25.414L44.207 27.21L43.5 27.91L42.793 27.21L41 25.414L39.207 27.21L38.5 27.91L37.793 27.21L36 25.414L34.207 27.21L33.5 27.91L32.793 27.21L31 25.414L29.207 27.21L28.5 27.91L28 27.41V68.59L28.5 68.09L29.207 68.79L31 70.59L32.793 68.79L33.5 68.09L34.207 68.79L36 70.59L37.793 68.79L38.5 68.09L39.207 68.79L41 70.59L42.793 68.79L43.5 68.09L44.207 68.79L46 70.59L47.793 68.79L48.5 68.09L49.207 68.79L50.749 70.33L49.537 71.95L48.5 70.91L46.707 72.71L46 73.41L45.293 72.71L43.5 70.91L41.707 72.71L41 73.41L40.293 72.71L38.5 70.91L36.707 72.71L36 73.41L35.293 72.71L33.5 70.91L31.707 72.71L31 73.41L30.293 72.71L28.5 70.91L27.707 71.71L26 73.41V71V25V22.586ZM45.514 63C46.141 63.76 46.868 64.43 47.674 65H39V63H45.514ZM43.181 58C43.308 58.69 43.5 59.36 43.75 60H39V58H43.181ZM45.514 49C45.007 49.61 44.565 50.28 44.199 51H39V49H45.514ZM54 45V44H39V46H49.411C50.808 45.36 52.362 45 54 45ZM33 32H45V34H33V32ZM33 39H37V41H33V39ZM37 44H33V46H37V44ZM33 49H37V51H33V49ZM37 58H33V60H37V58ZM33 63H37V65H33V63ZM54 39H39V41H54V39Z" fill="#fff"/>
<path fill-rule="evenodd" clip-rule="evenodd" d="M52.8 77.6L73.8 49.6L72.2 48.4L51.2 76.4L52.8 77.6ZM54 61C56.761 61 59 58.76 59 56C59 53.24 56.761 51 54 51C51.239 51 49 53.24 49 56C49 58.76 51.239 61 54 61ZM54 63C57.866 63 61 59.87 61 56C61 52.13 57.866 49 54 49C50.134 49 47 52.13 47 56C47 59.87 50.134 63 54 63ZM71 75C73.761 75 76 72.76 76 70C76 67.24 73.761 65 71 65C68.239 65 66 67.24 66 70C66 72.76 68.239 75 71 75ZM71 77C74.866 77 78 73.87 78 70C78 66.13 74.866 63 71 63C67.134 63 64 66.13 64 70C64 73.87 67.134 77 71 77Z" fill="#fff"/>
</symbol>
<symbol>
<path d="M120.778 50C120.778 22.938 93.9646 1 60.8889 1C27.8132 1 1 22.938 1 50C1 77.062 27.8132 99 60.8889 99C93.9646 99 120.778 77.062 120.778 50Z" fill="white" stroke="#EAEDF3" stroke-width="2"/>
<path fill-rule="evenodd" clip-rule="evenodd" d="M92.6666 67C92.6666 71.97 87.7423 76 81.6666 76C75.5909 76 70.6666 71.97 70.6666 67C70.6666 62.03 75.5909 58 81.6666 58C87.7423 58 92.6666 62.03 92.6666 67ZM95.111 67C95.111 73.08 89.0916 78 81.6666 78C74.2416 78 68.2222 73.08 68.2222 67C68.2222 60.92 74.2416 56 81.6666 56C89.0916 56 95.111 60.92 95.111 67ZM80.0863 71.21L88.6418 64.21L86.9136 62.79L79.2222 69.09L76.4196 66.79L74.6914 68.21L78.358 71.21L79.2222 71.91L80.0863 71.21Z" fill="#8894AA"/>
<path fill-rule="evenodd" clip-rule="evenodd" d="M90.4764 34.96L78.044 24.79L67.4192 33.49L79.8517 43.66L90.4764 34.96ZM76.3158 23.38L65.691 32.0699L62.5279 29.48L60.7997 28.0699L59.0714 29.48L32.1666 51.5C25.0778 57.3 25.0778 66.7 32.1666 72.5C39.2555 78.3 50.7493 78.3 57.8382 72.5L63.3712 67.97C63.3456 67.65 63.3333 67.33 63.3333 67C63.3333 66.34 63.3859 65.69 63.4873 65.05L56.1088 71.0899C49.9744 76.0999 40.0292 76.0999 33.8949 71.0899C27.7605 66.0699 27.7605 57.93 33.8949 52.91L60.7997 30.9L63.9628 33.49L45.4437 48.64C41.0559 52.23 41.0559 58.05 45.4437 61.64C49.8314 65.23 56.9448 65.23 61.3326 61.64L79.8517 46.49L83.0135 49.0699L79.2833 52.13C80.0631 52.04 80.8588 52 81.6667 52C82.0663 52 82.4623 52.01 82.8559 52.03L84.743 50.49L86.4712 49.0699L84.743 47.66L81.5799 45.0699L92.2047 36.38L93.9329 34.96L92.2047 33.55L79.7734 23.38L78.044 21.96L76.3158 23.38ZM59.6043 60.22L78.1234 45.0699L65.691 34.9L47.1719 50.05C43.7399 52.86 43.7399 57.41 47.1719 60.22C50.6051 63.03 56.1711 63.03 59.6043 60.22ZM79.3958 31.03L77.6675 29.62L73.3458 33.15L75.0752 34.5699L79.3958 31.03ZM82.8534 33.86L84.5817 35.27L80.2599 38.8101L78.5317 37.39L82.8534 33.86Z" fill="#8894AA"/>
</symbol>

<symbol id="sign">
<path d="M99 50C99 22.938 77.062 1 50 1C22.938 1 1 22.938 1 50C1 77.062 22.938 99 50 99C77.062 99 99 77.062 99 50Z" fill="white" stroke="#EAEDF3" stroke-width="2"/>
<path fill-rule="evenodd" clip-rule="evenodd" d="M76 67C76 71.97 71.971 76 67 76C62.029 76 58 71.97 58 67C58 62.03 62.029 58 67 58C71.971 58 76 62.03 76 67ZM78 67C78 73.08 73.075 78 67 78C60.925 78 56 73.08 56 67C56 60.92 60.925 56 67 56C73.075 56 78 60.92 78 67ZM65.707 71.21L72.707 64.21L71.293 62.79L65 69.09L62.707 66.79L61.293 68.21L64.293 71.21L65 71.91L65.707 71.21Z" fill="#8894AA"/>
<path fill-rule="evenodd" clip-rule="evenodd" d="M74.208 34.96L64.036 24.79L55.343 33.49L65.515 43.66L74.208 34.96ZM62.622 23.38L53.929 32.0699L51.341 29.48L49.927 28.0699L48.513 29.48L26.5 51.5C20.7 57.3 20.7 66.7 26.5 72.5C32.3 78.3 41.704 78.3 47.504 72.5L52.031 67.97C52.01 67.65 52 67.33 52 67C52 66.34 52.043 65.69 52.126 65.05L46.089 71.09C41.07 76.1 32.933 76.1 27.914 71.09C22.895 66.07 22.895 57.93 27.914 52.91L49.927 30.9L52.515 33.49L37.363 48.64C33.773 52.23 33.773 58.05 37.363 61.64C40.953 65.23 46.773 65.23 50.363 61.64L65.515 46.49L68.102 49.0699L65.049 52.13C65.688 52.04 66.339 52 67 52C67.327 52 67.651 52.01 67.972 52.03L69.516 50.49L70.931 49.0699L69.516 47.66L66.929 45.0699L75.622 36.38L77.036 34.96L75.622 33.55L65.45 23.38L64.036 21.96L62.622 23.38ZM48.949 60.22L64.1 45.0699L53.929 34.9L38.777 50.05C35.968 52.86 35.969 57.41 38.777 60.22C41.586 63.03 46.14 63.03 48.949 60.22ZM65.142 31.03L63.728 29.62L60.192 33.15L61.606 34.5699L65.142 31.03ZM67.97 33.86L69.385 35.27L65.849 38.8101L64.435 37.39L67.97 33.86Z" fill="#8894AA"/>

</symbol>

<symbol id="sign-next">
<path d="M99 50C99 22.938 77.062 1 50 1C22.938 1 1 22.938 1 50C1 77.062 22.938 99 50 99C77.062 99 99 77.062 99 50Z" fill="white" stroke="#EAEDF3" stroke-width="2"/>
<path d="M96.931 67.25C99.711 59.68 100.621 51.56 99.585 43.57C98.548 35.58 95.596 27.96 90.978 21.35C86.361 14.75 80.216 9.36005 73.066 5.64005C65.916 1.92005 57.974 -0.00996134 49.915 3.86621e-05L49.919 1.99003C57.657 1.98003 65.283 3.83006 72.148 7.40006C79.013 10.9701 84.914 16.15 89.348 22.49C93.781 28.83 96.616 36.15 97.612 43.82C98.607 51.5 97.733 59.3001 95.063 66.5601L96.931 67.25Z" fill="#1050CC"/>
<path fill-rule="evenodd" clip-rule="evenodd" d="M76 67C76 71.97 71.971 76 67 76C62.029 76 58 71.97 58 67C58 62.03 62.029 58 67 58C71.971 58 76 62.03 76 67ZM78 67C78 73.08 73.075 78 67 78C60.925 78 56 73.08 56 67C56 60.92 60.925 56 67 56C73.075 56 78 60.92 78 67ZM65.707 71.21L72.707 64.21L71.293 62.79L65 69.09L62.707 66.79L61.293 68.21L64.293 71.21L65 71.91L65.707 71.21Z" fill="#8894AA"/>
<path fill-rule="evenodd" clip-rule="evenodd" d="M74.208 34.96L64.036 24.79L55.343 33.49L65.515 43.66L74.208 34.96ZM62.622 23.38L53.929 32.0699L51.341 29.48L49.927 28.0699L48.513 29.48L26.5 51.5C20.7 57.3 20.7 66.7 26.5 72.5C32.3 78.3 41.704 78.3 47.504 72.5L52.031 67.97C52.01 67.65 52 67.33 52 67C52 66.34 52.043 65.69 52.126 65.05L46.089 71.09C41.07 76.1 32.933 76.1 27.914 71.09C22.895 66.07 22.895 57.93 27.914 52.91L49.927 30.9L52.515 33.49L37.363 48.64C33.773 52.23 33.773 58.05 37.363 61.64C40.953 65.23 46.773 65.23 50.363 61.64L65.515 46.49L68.102 49.0699L65.05 52.13C65.688 52.04 66.339 52 67 52C67.327 52 67.651 52.01 67.973 52.03L69.517 50.49L70.931 49.0699L69.517 47.66L66.929 45.0699L75.622 36.38L77.036 34.96L75.622 33.55L65.451 23.38L64.036 21.96L62.622 23.38ZM48.949 60.22L64.101 45.0699L53.929 34.9L38.777 50.05C35.969 52.86 35.969 57.41 38.777 60.22C41.586 63.03 46.14 63.03 48.949 60.22ZM65.142 31.03L63.728 29.62L60.192 33.15L61.607 34.5699L65.142 31.03ZM67.971 33.86L69.385 35.27L65.849 38.8101L64.435 37.39L67.971 33.86Z" fill="#8894AA"/>
</symbol>

<symbol id="sign-active">
<path d="M99 50C99 22.938 77.062 1 50 1C22.938 1 1 22.938 1 50C1 77.062 22.938 99 50 99C77.062 99 99 77.062 99 50Z" fill="#1050CC" stroke="#EAEDF3" stroke-width="2"/>


<path fill-rule="evenodd" clip-rule="evenodd" d="M76 67C76 71.97 71.971 76 67 76C62.029 76 58 71.97 58 67C58 62.03 62.029 58 67 58C71.971 58 76 62.03 76 67ZM78 67C78 73.08 73.075 78 67 78C60.925 78 56 73.08 56 67C56 60.92 60.925 56 67 56C73.075 56 78 60.92 78 67ZM65.707 71.21L72.707 64.21L71.293 62.79L65 69.09L62.707 66.79L61.293 68.21L64.293 71.21L65 71.91L65.707 71.21Z" fill="white"/>

<path fill-rule="evenodd" clip-rule="evenodd" d="M74.208 34.96L64.036 24.79L55.343 33.49L65.515 43.66L74.208 34.96ZM62.622 23.38L53.929 32.0699L51.341 29.48L49.927 28.0699L48.513 29.48L26.5 51.5C20.7 57.3 20.7 66.7 26.5 72.5C32.3 78.3 41.704 78.3 47.504 72.5L52.031 67.97C52.01 67.65 52 67.33 52 67C52 66.34 52.043 65.69 52.126 65.05L46.089 71.09C41.07 76.1 32.933 76.1 27.914 71.09C22.895 66.07 22.895 57.93 27.914 52.91L49.927 30.9L52.515 33.49L37.363 48.64C33.773 52.23 33.773 58.05 37.363 61.64C40.953 65.23 46.773 65.23 50.363 61.64L65.515 46.49L68.102 49.0699L65.05 52.13C65.688 52.04 66.339 52 67 52C67.327 52 67.651 52.01 67.973 52.03L69.517 50.49L70.931 49.0699L69.517 47.66L66.929 45.0699L75.622 36.38L77.036 34.96L75.622 33.55L65.451 23.38L64.036 21.96L62.622 23.38ZM48.949 60.22L64.101 45.0699L53.929 34.9L38.777 50.05C35.969 52.86 35.969 57.41 38.777 60.22C41.586 63.03 46.14 63.03 48.949 60.22ZM65.142 31.03L63.728 29.62L60.192 33.15L61.607 34.5699L65.142 31.03ZM67.971 33.86L69.385 35.27L65.849 38.8101L64.435 37.39L67.971 33.86Z" fill="white"/>
</symbol>
<symbol id="mark">
<path d="M99 50C99 22.938 77.062 1 50 1C22.938 1 1 22.938 1 50C1 77.062 22.938 99 50 99C77.062 99 99 77.062 99 50Z" fill="white" stroke="#EAEDF3" stroke-width="2"/>
<path fill-rule="evenodd" clip-rule="evenodd" d="M42 26H29C27.343 26 26 27.34 26 29V42H28V29C28 28.45 28.448 28 29 28H42V26ZM58 28V26H71C72.657 26 74 27.34 74 29V42H72V29C72 28.45 71.552 28 71 28H58ZM58 72H71C71.552 72 72 71.55 72 71V58H74V71C74 72.66 72.657 74 71 74H58V72ZM28 58V71C28 71.55 28.448 72 29 72H42V74H29C27.343 74 26 72.66 26 71V58H28Z" fill="#8894AA"/>
<path d="M56.707 46.21L55.293 44.79L49 51.09L46.707 48.79L45.293 50.21L49 53.91L56.707 46.21Z" fill="#8894AA"/>
<path fill-rule="evenodd" clip-rule="evenodd" d="M35 60V34H37V60H35ZM39 60V34H41V44.41C40.358 45.81 40 47.36 40 49C40 50.64 40.358 52.19 41 53.59V60H39ZM43 56.55V60H45V58.22C44.268 57.74 43.597 57.18 43 56.55ZM46 58.8V60H48V59.59C47.303 59.39 46.634 59.12 46 58.8ZM48 38.41C47.303 38.61 46.634 38.88 46 39.2V34H48V38.41ZM49 59.8199V60H51C50.317 60 49.649 59.9399 49 59.8199ZM51 38C50.317 38 49.649 38.0601 49 38.1801V34H51V38ZM52 59.96V60H54V59.59C53.355 59.77 52.687 59.89 52 59.96ZM54 38.41C53.355 38.23 52.687 38.11 52 38.04V34H54V38.41ZM57 58.22V60H59V56.55C58.403 57.18 57.732 57.74 57 58.22ZM59 41.45C58.403 40.82 57.732 40.26 57 39.78V34H59V41.45ZM61 53.59C61.642 52.19 62 50.64 62 49C62 47.36 61.642 45.81 61 44.41V34H63V60H61V53.59ZM45 39.78C44.268 40.26 43.597 40.82 43 41.45V34H45V39.78ZM64 34V60H66V34H64ZM35 66V62H37V66H35ZM39 62V66H41V62H39ZM43 66V62H45V66H43ZM46 62V66H48V62H46ZM49 66V62H51V66H49ZM52 62V66H54V62H52ZM57 66V62H59V66H57ZM61 62V66H63V62H61ZM64 66V62H66V66H64Z" fill="#8894AA"/>
</symbol>
<symbol id="mark-next">
	<path d="M99 50C99 22.938 77.062 1 50 1C22.938 1 1 22.938 1 50C1 77.062 22.938 99 50 99C77.062 99 99 77.062 99 50Z" fill="white" stroke="#EAEDF3" stroke-width="2"/>
	<path d="M96.931 67.25C99.711 59.68 100.621 51.56 99.585 43.57C98.548 35.58 95.596 27.95 90.978 21.35C86.361 14.75 80.216 9.36005 73.066 5.64005C65.916 1.92005 57.974 -0.00996134 49.915 3.86621e-05L49.919 1.99003C57.657 1.98003 65.283 3.83006 72.148 7.40006C79.013 10.9701 84.914 16.15 89.348 22.49C93.781 28.83 96.616 36.15 97.612 43.82C98.607 51.5 97.733 59.3001 95.063 66.5601L96.931 67.25Z" fill="#1050CC"/>
	<path fill-rule="evenodd" clip-rule="evenodd" d="M42 26H29C27.343 26 26 27.34 26 29V42H28V29C28 28.45 28.448 28 29 28H42V26ZM58 28V26H71C72.657 26 74 27.34 74 29V42H72V29C72 28.45 71.552 28 71 28H58ZM58 72H71C71.552 72 72 71.55 72 71V58H74V71C74 72.66 72.657 74 71 74H58V72ZM28 58V71C28 71.55 28.448 72 29 72H42V74H29C27.343 74 26 72.66 26 71V58H28Z" fill="#8894AA"/>
	<path d="M56.707 46.21L55.293 44.79L49 51.09L46.707 48.79L45.293 50.21L49 53.91L56.707 46.21Z" fill="#8894AA"/>
	<path fill-rule="evenodd" clip-rule="evenodd" d="M35 60V34H37V60H35ZM39 60V34H41V44.41C40.358 45.81 40 47.36 40 49C40 50.64 40.358 52.19 41 53.59V60H39ZM43 56.55V60H45V58.22C44.268 57.74 43.597 57.18 43 56.55ZM46 58.8V60H48V59.59C47.303 59.39 46.634 59.12 46 58.8ZM48 38.41C47.303 38.61 46.634 38.88 46 39.2V34H48V38.41ZM49 59.8199V60H51C50.317 60 49.649 59.9399 49 59.8199ZM51 38C50.317 38 49.649 38.0601 49 38.1801V34H51V38ZM52 59.96V60H54V59.59C53.355 59.77 52.687 59.89 52 59.96ZM54 38.41C53.355 38.23 52.687 38.11 52 38.04V34H54V38.41ZM57 58.22V60H59V56.55C58.403 57.18 57.732 57.74 57 58.22ZM59 41.45C58.403 40.82 57.732 40.26 57 39.78V34H59V41.45ZM61 53.59C61.642 52.19 62 50.64 62 49C62 47.36 61.642 45.81 61 44.41V34H63V60H61V53.59ZM45 39.78C44.268 40.26 43.597 40.82 43 41.45V34H45V39.78ZM64 34V60H66V34H64ZM35 66V62H37V66H35ZM39 62V66H41V62H39ZM43 66V62H45V66H43ZM46 62V66H48V62H46ZM49 66V62H51V66H49ZM52 62V66H54V62H52ZM57 66V62H59V66H57ZM61 62V66H63V62H61ZM64 66V62H66V66H64Z" fill="#8894AA"/>
</symbol>
<symbol id="mark-active">
	<path d="M99 50C99 22.938 77.062 1 50 1C22.938 1 1 22.938 1 50C1 77.062 22.938 99 50 99C77.062 99 99 77.062 99 50Z" fill="blue" stroke="#EAEDF3" stroke-width="2"/>
	<path fill-rule="evenodd" clip-rule="evenodd" d="M42 26H29C27.343 26 26 27.34 26 29V42H28V29C28 28.45 28.448 28 29 28H42V26ZM58 28V26H71C72.657 26 74 27.34 74 29V42H72V29C72 28.45 71.552 28 71 28H58ZM58 72H71C71.552 72 72 71.55 72 71V58H74V71C74 72.66 72.657 74 71 74H58V72ZM28 58V71C28 71.55 28.448 72 29 72H42V74H29C27.343 74 26 72.66 26 71V58H28Z" fill="#fff"/>
	<path d="M56.707 46.21L55.293 44.79L49 51.09L46.707 48.79L45.293 50.21L49 53.91L56.707 46.21Z" fill="#fff"/>
	<path fill-rule="evenodd" clip-rule="evenodd" d="M35 60V34H37V60H35ZM39 60V34H41V44.41C40.358 45.81 40 47.36 40 49C40 50.64 40.358 52.19 41 53.59V60H39ZM43 56.55V60H45V58.22C44.268 57.74 43.597 57.18 43 56.55ZM46 58.8V60H48V59.59C47.303 59.39 46.634 59.12 46 58.8ZM48 38.41C47.303 38.61 46.634 38.88 46 39.2V34H48V38.41ZM49 59.8199V60H51C50.317 60 49.649 59.9399 49 59.8199ZM51 38C50.317 38 49.649 38.0601 49 38.1801V34H51V38ZM52 59.96V60H54V59.59C53.355 59.77 52.687 59.89 52 59.96ZM54 38.41C53.355 38.23 52.687 38.11 52 38.04V34H54V38.41ZM57 58.22V60H59V56.55C58.403 57.18 57.732 57.74 57 58.22ZM59 41.45C58.403 40.82 57.732 40.26 57 39.78V34H59V41.45ZM61 53.59C61.642 52.19 62 50.64 62 49C62 47.36 61.642 45.81 61 44.41V34H63V60H61V53.59ZM45 39.78C44.268 40.26 43.597 40.82 43 41.45V34H45V39.78ZM64 34V60H66V34H64ZM35 66V62H37V66H35ZM39 62V66H41V62H39ZM43 66V62H45V66H43ZM46 62V66H48V62H46ZM49 66V62H51V66H49ZM52 62V66H54V62H52ZM57 66V62H59V66H57ZM61 62V66H63V62H61ZM64 66V62H66V66H64Z" fill="#fff"/>
</symbol>
</defs>
</svg>



